<svg width="1635" height="136" viewBox="0 0 1635 136" fill="none" xmlns="http://www.w3.org/2000/svg">
<path d="M58.1122 2.00009C58.7763 1.9933 59.3896 2.35655 59.7019 2.94266L115.833 108.36L112.691 110.034L58.1697 7.64078L6.3264 110.001L3.14979 108.394L56.5426 2.97608C56.8427 2.38365 57.4482 2.00708 58.1122 2.00009Z" fill="white"/>
<path d="M112.893 112.62C112.893 111.313 112.189 109.556 109.782 107.455C107.383 105.362 103.674 103.29 98.7371 101.468C88.8943 97.8357 75.0224 95.5067 59.5 95.5067C43.9776 95.5067 30.1057 97.8357 20.2629 101.468C15.3257 103.29 11.6168 105.362 9.21825 107.455C6.81103 109.556 6.10714 111.313 6.10714 112.62C6.10714 113.927 6.81103 115.684 9.21825 117.785C11.6168 119.878 15.3257 121.949 20.2629 123.772C30.1057 127.404 43.9776 129.733 59.5 129.733V133.84C27.7436 133.84 2 124.34 2 112.62C2 100.9 27.7436 91.3995 59.5 91.3995C91.2564 91.3995 117 100.9 117 112.62C117 124.34 91.2564 133.84 59.5 133.84V129.733C75.0224 129.733 88.8943 127.404 98.7371 123.772C103.674 121.949 107.383 119.878 109.782 117.785C112.189 115.684 112.893 113.927 112.893 112.62Z" fill="white"/>
<path d="M60.1845 6.51773V108.513H114.262V112.62H58.131C56.9968 112.62 56.0774 111.701 56.0774 110.566V6.51773H60.1845Z" fill="white"/>
<path d="M58.1122 2.00009L58.0918 0.000198126L58.0912 0.000204206L58.1122 2.00009ZM59.7019 2.94266L61.4672 2.00268L61.467 2.00227L59.7019 2.94266ZM115.833 108.36L116.773 110.125C117.748 109.606 118.117 108.395 117.598 107.42L115.833 108.36ZM112.691 110.034L110.926 110.974C111.175 111.442 111.6 111.793 112.108 111.947C112.615 112.102 113.163 112.049 113.631 111.799L112.691 110.034ZM58.1697 7.64078L59.9351 6.7008C59.5842 6.04192 58.8957 5.63325 58.1493 5.64089C57.4028 5.64853 56.7228 6.0712 56.3855 6.73712L58.1697 7.64078ZM6.3264 110.001L5.42356 111.785C6.40886 112.284 7.61169 111.89 8.11061 110.904L6.3264 110.001ZM3.14979 108.394L1.36559 107.49C1.12584 107.963 1.08402 108.513 1.24932 109.017C1.41462 109.521 1.77349 109.939 2.24695 110.178L3.14979 108.394ZM56.5426 2.97608L54.7584 2.0724L54.7584 2.07241L56.5426 2.97608ZM109.782 107.455L111.097 105.948L111.097 105.948L109.782 107.455ZM98.7371 101.468L99.4296 99.5919L99.4296 99.5919L98.7371 101.468ZM20.2629 101.468L19.5704 99.5919L19.5704 99.5919L20.2629 101.468ZM9.21825 107.455L7.90335 105.948L7.90328 105.948L9.21825 107.455ZM9.21825 117.785L7.90328 119.292L7.90335 119.292L9.21825 117.785ZM20.2629 123.772L19.5704 125.648L19.5704 125.648L20.2629 123.772ZM98.7371 123.772L99.4296 125.648L99.4296 125.648L98.7371 123.772ZM109.782 117.785L111.097 119.292L111.097 119.292L109.782 117.785ZM60.1845 6.51773H62.1845C62.1845 5.41316 61.2891 4.51773 60.1845 4.51773V6.51773ZM60.1845 108.513H58.1845C58.1845 109.617 59.08 110.513 60.1845 110.513V108.513ZM114.262 108.513H116.262C116.262 107.408 115.366 106.513 114.262 106.513V108.513ZM114.262 112.62V114.62C115.366 114.62 116.262 113.725 116.262 112.62H114.262ZM56.0774 6.51773V4.51773C54.9728 4.51773 54.0774 5.41316 54.0774 6.51773H56.0774ZM58.1122 2.00009L58.1327 3.99999C58.0519 4.00081 57.9761 3.95683 57.9368 3.88305L59.7019 2.94266L61.467 2.00227C60.8032 0.756265 59.5007 -0.0142114 58.0918 0.000198245L58.1122 2.00009ZM59.7019 2.94266L57.9365 3.88264L114.067 109.3L115.833 108.36L117.598 107.42L61.4672 2.00268L59.7019 2.94266ZM115.833 108.36L114.892 106.595L111.751 108.269L112.691 110.034L113.631 111.799L116.773 110.125L115.833 108.36ZM112.691 110.034L114.456 109.094L59.9351 6.7008L58.1697 7.64078L56.4044 8.58077L110.926 110.974L112.691 110.034ZM58.1697 7.64078L56.3855 6.73712L4.5422 109.097L6.3264 110.001L8.11061 110.904L59.9539 8.54445L58.1697 7.64078ZM6.3264 110.001L7.22924 108.216L4.05263 106.609L3.14979 108.394L2.24695 110.178L5.42356 111.785L6.3264 110.001ZM3.14979 108.394L4.93399 109.297L58.3268 3.87976L56.5426 2.97608L54.7584 2.07241L1.36559 107.49L3.14979 108.394ZM56.5426 2.97608L58.3268 3.87977C58.2898 3.95284 58.2157 3.99912 58.1333 3.99998L58.1122 2.00009L58.0912 0.000204206C56.6807 0.015039 55.3956 0.814466 54.7584 2.0724L56.5426 2.97608ZM112.893 112.62H114.893C114.893 110.529 113.755 108.268 111.097 105.948L109.782 107.455L108.467 108.962C110.623 110.844 110.893 112.097 110.893 112.62H112.893ZM109.782 107.455L111.097 105.948C108.449 103.638 104.496 101.462 99.4296 99.5919L98.7371 101.468L98.0447 103.345C102.853 105.119 106.317 107.087 108.467 108.962L109.782 107.455ZM98.7371 101.468L99.4296 99.5919C89.3128 95.8583 75.1957 93.5067 59.5 93.5067V95.5067V97.5067C74.8491 97.5067 88.4759 99.8132 98.0447 103.345L98.7371 101.468ZM59.5 95.5067V93.5067C43.8043 93.5067 29.6872 95.8583 19.5704 99.5919L20.2629 101.468L20.9553 103.345C30.5241 99.8132 44.1509 97.5067 59.5 97.5067V95.5067ZM20.2629 101.468L19.5704 99.5919C14.5041 101.462 10.5508 103.638 7.90335 105.948L9.21825 107.455L10.5332 108.962C12.6828 107.087 16.1472 105.119 20.9553 103.345L20.2629 101.468ZM9.21825 107.455L7.90328 105.948C5.24515 108.268 4.10714 110.529 4.10714 112.62H6.10714H8.10714C8.10714 112.097 8.37691 110.844 10.5332 108.962L9.21825 107.455ZM6.10714 112.62H4.10714C4.10714 114.711 5.24515 116.972 7.90328 119.292L9.21825 117.785L10.5332 116.278C8.37691 114.396 8.10714 113.143 8.10714 112.62H6.10714ZM9.21825 117.785L7.90335 119.292C10.5508 121.602 14.5041 123.778 19.5704 125.648L20.2629 123.772L20.9553 121.895C16.1472 120.121 12.6828 118.153 10.5332 116.278L9.21825 117.785ZM20.2629 123.772L19.5704 125.648C29.6872 129.382 43.8043 131.733 59.5 131.733V129.733V127.733C44.1509 127.733 30.5241 125.427 20.9553 121.895L20.2629 123.772ZM59.5 129.733H57.5V133.84H59.5H61.5V129.733H59.5ZM59.5 133.84V131.84C43.7951 131.84 29.6653 129.488 19.5338 125.749C14.4603 123.876 10.4944 121.695 7.83354 119.373C5.16832 117.047 4 114.76 4 112.62H2H0C0 116.34 2.04963 119.635 5.20373 122.387C8.36223 125.143 12.817 127.534 18.1489 129.501C28.8284 133.443 43.4485 135.84 59.5 135.84V133.84ZM2 112.62H4C4 110.48 5.16832 108.192 7.83354 105.867C10.4944 103.545 14.4603 101.364 19.5338 99.4911C29.6653 95.7521 43.7951 93.3995 59.5 93.3995V91.3995V89.3995C43.4485 89.3995 28.8284 91.7973 18.1489 95.7385C12.817 97.7063 8.36223 100.097 5.20373 102.853C2.04963 105.605 0 108.9 0 112.62H2ZM59.5 91.3995V93.3995C75.2049 93.3995 89.3347 95.7521 99.4662 99.4911C104.54 101.364 108.506 103.545 111.166 105.867C113.832 108.192 115 110.48 115 112.62H117H119C119 108.9 116.95 105.605 113.796 102.853C110.638 100.097 106.183 97.7063 100.851 95.7385C90.1716 91.7973 75.5515 89.3995 59.5 89.3995V91.3995ZM117 112.62H115C115 114.76 113.832 117.047 111.166 119.373C108.506 121.695 104.54 123.876 99.4662 125.749C89.3347 129.488 75.2049 131.84 59.5 131.84V133.84V135.84C75.5515 135.84 90.1716 133.443 100.851 129.501C106.183 127.534 110.638 125.143 113.796 122.387C116.95 119.635 119 116.34 119 112.62H117ZM59.5 129.733V131.733C75.1957 131.733 89.3128 129.382 99.4296 125.648L98.7371 123.772L98.0447 121.895C88.4759 125.427 74.8491 127.733 59.5 127.733V129.733ZM98.7371 123.772L99.4296 125.648C104.496 123.778 108.449 121.602 111.097 119.292L109.782 117.785L108.467 116.278C106.317 118.153 102.853 120.121 98.0447 121.895L98.7371 123.772ZM109.782 117.785L111.097 119.292C113.755 116.972 114.893 114.711 114.893 112.62H112.893H110.893C110.893 113.143 110.623 114.396 108.467 116.278L109.782 117.785ZM60.1845 6.51773H58.1845V108.513H60.1845H62.1845V6.51773H60.1845ZM60.1845 108.513V110.513H114.262V108.513V106.513H60.1845V108.513ZM114.262 108.513H112.262V112.62H114.262H116.262V108.513H114.262ZM114.262 112.62V110.62H58.131V112.62V114.62H114.262V112.62ZM58.131 112.62V110.62C58.1199 110.62 58.1143 110.618 58.1107 110.617C58.1058 110.614 58.0994 110.611 58.0931 110.604C58.0868 110.598 58.0829 110.592 58.0808 110.587C58.0792 110.583 58.0774 110.577 58.0774 110.566H56.0774H54.0774C54.0774 112.805 55.8922 114.62 58.131 114.62V112.62ZM56.0774 110.566H58.0774V6.51773H56.0774H54.0774V110.566H56.0774ZM56.0774 6.51773V8.51773H60.1845V6.51773V4.51773H56.0774V6.51773Z" fill="white"/>
<path d="M1580.08 131.687C1570.04 131.687 1560.35 130.46 1551 128.008C1541.78 125.439 1534.24 122.169 1528.4 118.198L1539.79 92.6212C1545.28 96.1248 1551.59 99.0445 1558.71 101.38C1565.95 103.599 1573.13 104.709 1580.26 104.709C1585.05 104.709 1588.9 104.3 1591.82 103.482C1594.74 102.548 1596.84 101.38 1598.13 99.9788C1599.53 98.4606 1600.23 96.7087 1600.23 94.7234C1600.23 91.9204 1598.94 89.7015 1596.37 88.0664C1593.81 86.4314 1590.48 85.0883 1586.39 84.0372C1582.3 82.9862 1577.75 81.9351 1572.73 80.884C1567.82 79.8329 1562.86 78.4898 1557.83 76.8548C1552.93 75.2198 1548.43 73.1176 1544.35 70.5482C1540.26 67.8621 1536.93 64.4169 1534.36 60.2125C1531.79 55.8914 1530.51 50.4607 1530.51 43.9206C1530.51 36.563 1532.49 29.906 1536.46 23.9499C1540.55 17.9937 1546.62 13.2054 1554.68 9.58494C1562.74 5.96451 1572.78 4.1543 1584.81 4.1543C1592.87 4.1543 1600.75 5.0886 1608.46 6.95721C1616.29 8.70903 1623.24 11.3368 1629.31 14.8404L1618.62 40.5921C1612.78 37.4389 1607 35.1031 1601.28 33.5849C1595.56 31.9498 1590.01 31.1323 1584.64 31.1323C1579.85 31.1323 1576 31.6579 1573.08 32.709C1570.16 33.6433 1568.05 34.9279 1566.77 36.5629C1565.48 38.198 1564.84 40.0666 1564.84 42.1688C1564.84 44.8549 1566.07 47.0155 1568.52 48.6505C1571.09 50.1687 1574.42 51.4534 1578.51 52.5045C1582.71 53.4388 1587.27 54.4315 1592.17 55.4826C1597.19 56.5337 1602.16 57.8768 1607.06 59.5118C1612.08 61.03 1616.64 63.1322 1620.73 65.8183C1624.81 68.3877 1628.08 71.8329 1630.54 76.1541C1633.1 80.3584 1634.39 85.6723 1634.39 92.0956C1634.39 99.2197 1632.35 105.818 1628.26 111.891C1624.29 117.847 1618.27 122.636 1610.21 126.256C1602.27 129.877 1592.23 131.687 1580.08 131.687Z" fill="white"/>
<path d="M1461.06 131.687C1451.37 131.687 1442.38 130.168 1434.08 127.132C1425.91 123.979 1418.78 119.541 1412.71 113.818C1406.76 108.096 1402.08 101.38 1398.7 93.6723C1395.31 85.8475 1393.62 77.2636 1393.62 67.9205C1393.62 58.5775 1395.31 50.052 1398.7 42.344C1402.08 34.5192 1406.76 27.7455 1412.71 22.0229C1418.78 16.3002 1425.91 11.9207 1434.08 8.88421C1442.38 5.73093 1451.37 4.1543 1461.06 4.1543C1472.39 4.1543 1482.49 6.13969 1491.37 10.1105C1500.36 14.0813 1507.84 19.8039 1513.79 27.2783L1491.72 47.2491C1487.75 42.5775 1483.37 39.0155 1478.58 36.5629C1473.91 34.1104 1468.65 32.8841 1462.81 32.8841C1457.79 32.8841 1453.18 33.7017 1448.97 35.3367C1444.77 36.9717 1441.15 39.3659 1438.11 42.5191C1435.19 45.5556 1432.86 49.2344 1431.11 53.5556C1429.47 57.8768 1428.65 62.6651 1428.65 67.9205C1428.65 73.176 1429.47 77.9643 1431.11 82.2854C1432.86 86.6066 1435.19 90.3438 1438.11 93.4971C1441.15 96.5336 1444.77 98.8693 1448.97 100.504C1453.18 102.139 1457.79 102.957 1462.81 102.957C1468.65 102.957 1473.91 101.731 1478.58 99.2781C1483.37 96.8255 1487.75 93.2635 1491.72 88.592L1513.79 108.563C1507.84 115.92 1500.36 121.643 1491.37 125.731C1482.49 129.701 1472.39 131.687 1461.06 131.687Z" fill="white"/>
<path d="M1330.26 129.235V6.60742H1364.95V129.235H1330.26Z" fill="white"/>
<path d="M1234.87 129.235V34.111H1197.2V6.60742H1307.04V34.111H1269.55V129.235H1234.87Z" fill="white"/>
<path d="M1052.2 129.235L1106.33 6.60742H1140.49L1194.79 129.235H1158.71L1116.31 23.6001H1129.98L1087.58 129.235H1052.2ZM1081.8 105.41L1090.74 79.8335H1150.65L1159.58 105.41H1081.8Z" fill="white"/>
<path d="M889.473 129.235V6.60742H918.027L968.83 89.994H953.764L1003.17 6.60742H1031.72L1032.07 129.235H1000.19L999.837 55.1328H1005.27L968.304 117.147H952.889L914.874 55.1328H921.531V129.235H889.473Z" fill="white"/>
<path d="M726.744 129.235L780.875 6.60742H815.036L869.342 129.235H833.255L790.861 23.6001H804.525L762.131 129.235H726.744ZM756.35 105.41L765.284 79.8335H825.196L834.131 105.41H756.35Z" fill="white"/>
<path d="M588.141 129.235V6.60742H646.126C659.673 6.60742 671.586 9.11837 681.863 14.1403C692.14 19.1621 700.14 26.2278 705.863 35.3373C711.702 44.4467 714.622 55.308 714.622 67.9211C714.622 80.4174 711.702 91.2787 705.863 100.505C700.14 109.614 692.14 116.68 681.863 121.702C671.586 126.724 659.673 129.235 646.126 129.235H588.141ZM622.827 101.556H644.724C651.732 101.556 657.805 100.271 662.943 97.702C668.199 95.0159 672.286 91.1619 675.206 86.14C678.126 81.0013 679.586 74.9284 679.586 67.9211C679.586 60.797 678.126 54.7241 675.206 49.7022C672.286 44.6803 668.199 40.8847 662.943 38.3153C657.805 35.6292 651.732 34.2862 644.724 34.2862H622.827V101.556Z" fill="white"/>
<path d="M436.707 129.235V6.60742H465.262L532.882 88.2422H519.393V6.60742H553.378V129.235H524.824L457.203 47.6H470.692V129.235H436.707Z" fill="white"/>
<path d="M345.277 131.687C327.175 131.687 313.044 126.724 302.883 116.797C292.723 106.87 287.643 92.7969 287.643 74.578V6.60742H322.329V73.5269C322.329 84.0378 324.372 91.5707 328.46 96.1254C332.664 100.68 338.387 102.957 345.628 102.957C352.869 102.957 358.533 100.68 362.62 96.1254C366.708 91.5707 368.752 84.0378 368.752 73.5269V6.60742H402.912V74.578C402.912 92.7969 397.832 106.87 387.671 116.797C377.511 126.724 363.38 131.687 345.277 131.687Z" fill="white"/>
<path d="M166 129.235V6.60742H262.175V33.4103H200.686V129.235H166ZM198.233 87.1911V60.3883H254.817V87.1911H198.233Z" fill="white"/>
</svg>
